<svg width="1200" height="300" viewBox="0 0 1200 300" xmlns="http://www.w3.org/2000/svg">
  <defs>
    <linearGradient id="bg" x1="0" y1="0" x2="1200" y2="300" gradientUnits="userSpaceOnUse">
      <stop offset="0" stop-color="#0a0e1a"/>
      <stop offset="1" stop-color="#161129"/>
    </linearGradient>
    <linearGradient id="accent" x1="0" y1="0" x2="1" y2="0">
      <stop offset="0" stop-color="#818cf8"/>
      <stop offset="1" stop-color="#22d3ee"/>
    </linearGradient>
    <radialGradient id="glow" cx="0.5" cy="0.5" r="0.5">
      <stop offset="0" stop-color="#22d3ee" stop-opacity="0.30"/>
      <stop offset="1" stop-color="#22d3ee" stop-opacity="0"/>
    </radialGradient>
  </defs>

  <rect width="1200" height="300" rx="18" fill="url(#bg)"/>

  <circle cx="990" cy="150" r="180" fill="url(#glow)"/>

  <g fill="#ffffff" opacity="0.5">
    <circle cx="120" cy="38" r="1.3"/>
    <circle cx="300" cy="24" r="1"/>
    <circle cx="470" cy="52" r="1.4"/>
    <circle cx="620" cy="20" r="1"/>
    <circle cx="700" cy="70" r="1.2"/>
    <circle cx="150" cy="270" r="1"/>
    <circle cx="360" cy="280" r="1.2"/>
    <circle cx="520" cy="265" r="1"/>
  </g>

  <g transform="translate(990,150)" fill="none" stroke="url(#accent)" stroke-width="1.6" opacity="0.85">
    <ellipse rx="150" ry="55" transform="rotate(0)"/>
    <ellipse rx="150" ry="55" transform="rotate(60)"/>
    <ellipse rx="150" ry="55" transform="rotate(120)"/>
  </g>
  <circle cx="990" cy="150" r="9" fill="url(#accent)"/>
  <circle cx="1097" cy="112" r="4" fill="#22d3ee" opacity="0.9"/>
  <circle cx="878" cy="193" r="4" fill="#818cf8" opacity="0.9"/>

  <rect x="60" y="44" rx="12" ry="12" width="230" height="27" fill="none" stroke="#39415c" stroke-width="1"/>
  <text x="76" y="62" font-family="ui-monospace, SFMono-Regular, Menlo, monospace" font-size="12" letter-spacing="2" fill="#8b93b0">ALEJANDRO VALADEZ</text>

  <text x="60" y="150" font-family="-apple-system, Segoe UI, Helvetica, Arial, sans-serif" font-size="44" font-weight="700" fill="#f4f5f8">I build tools</text>
  <text x="60" y="197" font-family="-apple-system, Segoe UI, Helvetica, Arial, sans-serif" font-size="36" font-weight="700" fill="url(#accent)">for problems I actually have.</text>

  <text x="62" y="248" font-family="ui-monospace, SFMono-Regular, Menlo, monospace" font-size="13" letter-spacing="2.5" fill="#7c869f">AEROSPACE · QUANTUM COMPUTING · COMPETITION MATH · IMSA '29</text>
</svg>
